<svg xmlns="http://www.w3.org/2000/svg" viewBox="0 0 256 256"><g fill="#17130e"><polygon points="132.670,25.088 131.898,26.473 131.111,27.820 130.296,29.164 129.451,30.504 128.574,31.841 127.667,33.174 126.728,34.506 125.757,35.834 124.756,37.160 123.724,38.484 122.662,39.805 121.570,41.124 120.449,42.440 119.300,43.753 118.122,45.064 116.918,46.372 115.688,47.676 114.432,48.978 113.151,50.276 111.847,51.570 110.519,52.860 109.170,54.147 107.799,55.429 106.408,56.707 104.997,57.979 103.568,59.247 102.122,60.510 100.659,61.767 99.180,63.018 97.687,64.263 96.181,65.502 94.661,66.735 93.130,67.961 91.589,69.179 90.038,70.390 88.478,71.594 86.911,72.790 85.337,73.977 83.758,75.157 82.174,76.327 80.587,77.489 78.997,78.641 77.406,79.784 75.814,80.917 74.224,82.041 72.635,83.154 71.049,84.257 69.466,85.349 67.889,86.430 66.318,87.500 64.754,88.558 63.198,89.606 61.651,90.641 60.115,91.665 58.590,92.676 57.078,93.676 55.579,94.663 54.096,95.638 52.628,96.601 51.178,97.551 49.746,98.490 48.334,99.417 46.943,100.333 45.567,101.242 48.433,106.758 49.984,106.147 51.558,105.502 53.148,104.828 54.752,104.127 56.371,103.398 58.003,102.644 59.646,101.864 61.301,101.059 62.966,100.229 64.640,99.376 66.322,98.499 68.011,97.599 69.705,96.677 71.405,95.732 73.109,94.765 74.815,93.776 76.523,92.766 78.231,91.735 79.939,90.684 81.645,89.612 83.349,88.520 85.048,87.408 86.743,86.277 88.432,85.126 90.113,83.957 91.786,82.769 93.450,81.562 95.103,80.338 96.745,79.096 98.374,77.836 99.989,76.559 101.589,75.265 103.172,73.955 104.739,72.628 106.286,71.285 107.814,69.927 109.321,68.552 110.806,67.163 112.268,65.759 113.706,64.340 115.117,62.907 116.502,61.460 117.859,60.000 119.186,58.526 120.483,57.039 121.747,55.539 122.979,54.027 124.176,52.503 125.336,50.968 126.460,49.421 127.544,47.864 128.589,46.296 129.591,44.719 130.551,43.132 131.465,41.536 132.332,39.931 133.152,38.319 133.920,36.700 134.637,35.075 135.299,33.444 135.903,31.807 136.448,30.167 136.929,28.524 137.330,26.912"/><polygon points="126.431,46.506 127.271,47.331 128.112,48.147 128.966,48.964 129.832,49.785 130.710,50.610 131.600,51.441 132.501,52.277 133.413,53.119 134.335,53.966 135.268,54.819 136.212,55.678 137.167,56.542 138.132,57.412 139.107,58.285 140.093,59.163 141.089,60.045 142.095,60.930 143.112,61.818 144.139,62.709 145.176,63.601 146.223,64.494 147.281,65.388 148.349,66.282 149.426,67.176 150.514,68.069 151.612,68.959 152.720,69.848 153.837,70.734 154.965,71.616 156.102,72.493 157.249,73.366 158.406,74.233 159.572,75.094 160.748,75.948 161.933,76.794 163.128,77.632 164.332,78.461 165.545,79.280 166.768,80.089 167.999,80.886 169.240,81.672 170.489,82.444 171.747,83.203 173.013,83.948 174.288,84.678 175.571,85.392 176.863,86.089 178.162,86.769 179.469,87.430 180.783,88.073 182.105,88.695 183.435,89.296 184.771,89.875 186.113,90.431 187.463,90.963 188.818,91.470 190.179,91.952 191.546,92.406 192.917,92.832 194.294,93.228 195.674,93.593 197.059,93.925 198.447,94.223 199.809,94.475 202.191,87.525 201.024,86.910 199.890,86.295 198.759,85.671 197.629,85.036 196.502,84.390 195.376,83.734 194.251,83.067 193.127,82.389 192.005,81.700 190.882,81.002 189.760,80.292 188.639,79.574 187.517,78.845 186.395,78.107 185.273,77.361 184.151,76.606 183.028,75.843 181.904,75.073 180.780,74.295 179.656,73.511 178.530,72.720 177.404,71.924 176.277,71.123 175.149,70.317 174.020,69.507 172.891,68.693 171.760,67.876 170.629,67.057 169.497,66.236 168.363,65.414 167.229,64.590 166.094,63.767 164.959,62.944 163.822,62.122 162.685,61.301 161.547,60.483 160.408,59.668 159.268,58.856 158.128,58.049 156.988,57.246 155.847,56.449 154.705,55.657 153.563,54.873 152.421,54.096 151.278,53.328 150.135,52.569 148.992,51.819 147.849,51.080 146.705,50.352 145.562,49.636 144.419,48.934 143.276,48.245 142.133,47.571 140.990,46.912 139.847,46.271 138.705,45.647 137.562,45.043 136.420,44.458 135.278,43.896 134.136,43.357 132.993,42.844 131.849,42.359 130.704,41.905 129.569,41.494"/><polygon points="90.387,101.659 92.110,102.297 93.891,102.885 95.694,103.420 97.516,103.906 99.352,104.346 101.202,104.742 103.061,105.097 104.929,105.413 106.802,105.693 108.679,105.938 110.557,106.150 112.435,106.332 114.310,106.485 116.181,106.611 118.046,106.713 119.903,106.791 121.750,106.849 123.586,106.887 125.408,106.907 127.216,106.912 129.006,106.903 130.779,106.881 132.531,106.849 134.261,106.808 135.968,106.761 137.649,106.707 139.303,106.650 140.929,106.591 142.524,106.531 144.086,106.472 145.614,106.416 147.106,106.364 148.560,106.318 149.974,106.280 151.345,106.250 152.672,106.230 153.953,106.221 155.185,106.225 156.366,106.242 157.493,106.273 158.565,106.319 159.578,106.381 160.529,106.457 161.416,106.549 162.237,106.654 162.989,106.772 163.670,106.900 164.280,107.035 164.819,107.174 165.290,107.312 165.696,107.448 166.047,107.578 166.353,107.703 166.628,107.830 166.884,107.969 167.134,108.137 167.382,108.351 167.631,108.634 167.874,109.002 168.102,109.469 168.305,110.044 168.471,110.730 168.591,111.530 168.641,112.540 175.359,113.460 175.709,112.282 175.978,111.017 176.147,109.759 176.210,108.504 176.157,107.255 175.981,106.017 175.675,104.799 175.238,103.617 174.671,102.488 173.985,101.427 173.194,100.447 172.315,99.557 171.362,98.757 170.350,98.047 169.289,97.421 168.188,96.871 167.052,96.392 165.884,95.977 164.687,95.619 163.460,95.313 162.206,95.054 160.923,94.838 159.613,94.661 158.276,94.520 156.912,94.412 155.521,94.335 154.103,94.286 152.660,94.262 151.192,94.262 149.699,94.284 148.183,94.326 146.644,94.386 145.083,94.461 143.501,94.552 141.899,94.655 140.278,94.769 138.639,94.893 136.983,95.025 135.312,95.162 133.626,95.305 131.926,95.450 130.215,95.597 128.492,95.745 126.760,95.890 125.018,96.033 123.269,96.171 121.514,96.303 119.753,96.428 117.988,96.543 116.221,96.649 114.451,96.743 112.680,96.823 110.909,96.890 109.139,96.940 107.371,96.974 105.606,96.989 103.844,96.985 102.087,96.961 100.334,96.915 98.586,96.847 96.844,96.756 95.107,96.643 93.374,96.506 91.613,96.341"/><polygon points="77.228,136.089 78.983,136.809 80.865,137.467 82.806,138.052 84.799,138.570 86.841,139.023 88.925,139.416 91.048,139.752 93.205,140.034 95.393,140.265 97.607,140.449 99.845,140.588 102.102,140.684 104.376,140.741 106.662,140.761 108.959,140.747 111.261,140.701 113.567,140.626 115.873,140.523 118.176,140.396 120.473,140.247 122.760,140.078 125.034,139.892 127.292,139.690 129.531,139.475 131.748,139.250 133.940,139.016 136.102,138.776 138.232,138.533 140.327,138.287 142.384,138.043 144.398,137.801 146.366,137.564 148.286,137.334 150.152,137.114 151.962,136.905 153.711,136.710 155.396,136.530 157.012,136.368 158.555,136.225 160.020,136.103 161.401,136.003 162.693,135.928 163.890,135.876 164.983,135.849 165.965,135.844 166.827,135.860 167.557,135.891 168.144,135.927 168.576,135.954 168.846,135.949 168.953,135.881 168.918,135.716 168.791,135.426 168.654,135.024 168.591,134.580 168.638,134.208 168.771,134.017 168.923,134.063 169.030,134.355 169.043,134.873 168.935,135.590 168.690,136.483 168.301,137.532 167.716,138.795 174.284,143.205 175.344,142.018 176.330,140.777 177.197,139.535 177.943,138.269 178.560,136.949 179.025,135.546 179.296,134.035 179.315,132.421 179.021,130.755 178.396,129.142 177.482,127.691 176.370,126.469 175.146,125.483 173.867,124.703 172.560,124.088 171.231,123.604 169.878,123.224 168.496,122.928 167.078,122.704 165.620,122.540 164.119,122.431 162.573,122.370 160.980,122.354 159.339,122.378 157.652,122.439 155.918,122.534 154.140,122.661 152.318,122.817 150.454,123.000 148.551,123.207 146.610,123.437 144.634,123.686 142.625,123.953 140.585,124.236 138.518,124.532 136.426,124.839 134.311,125.155 132.176,125.479 130.025,125.807 127.859,126.138 125.682,126.470 123.497,126.801 121.305,127.128 119.111,127.450 116.917,127.764 114.726,128.069 112.540,128.362 110.364,128.642 108.198,128.907 106.047,129.155 103.913,129.384 101.798,129.592 99.706,129.777 97.639,129.938 95.600,130.073 93.592,130.181 91.615,130.260 89.674,130.309 87.769,130.327 85.902,130.313 84.074,130.265 82.287,130.185 80.540,130.072 78.772,129.911"/><polygon points="128.456,110.989 129.054,113.171 129.542,115.268 129.943,117.337 130.261,119.381 130.499,121.401 130.659,123.399 130.745,125.377 130.760,127.336 130.707,129.278 130.589,131.205 130.409,133.117 130.170,135.016 129.874,136.903 129.524,138.778 129.122,140.642 128.672,142.496 128.175,144.340 127.635,146.174 127.053,147.999 126.432,149.814 125.775,151.619 125.084,153.413 124.363,155.198 123.613,156.972 122.838,158.735 122.040,160.487 121.222,162.227 120.387,163.955 119.538,165.670 118.677,167.372 117.808,169.060 116.933,170.734 116.055,172.393 115.178,174.037 114.304,175.666 113.437,177.278 112.579,178.874 111.733,180.454 110.903,182.016 110.091,183.561 109.300,185.088 108.534,186.598 107.796,188.090 107.089,189.564 106.416,191.021 105.781,192.460 105.186,193.883 104.636,195.289 104.133,196.681 103.683,198.058 103.289,199.422 102.956,200.775 102.691,202.117 102.498,203.451 102.387,204.778 102.366,206.097 102.445,207.406 102.636,208.700 102.951,209.970 103.399,211.200 103.985,212.370 104.707,213.458 105.556,214.442 106.388,215.162 111.612,210.838 111.323,210.203 111.240,209.749 111.214,209.316 111.228,208.883 111.275,208.430 111.354,207.938 111.467,207.393 111.619,206.786 111.816,206.113 112.061,205.374 112.357,204.569 112.706,203.701 113.107,202.772 113.560,201.785 114.063,200.743 114.614,199.648 115.211,198.502 115.851,197.308 116.531,196.067 117.249,194.781 118.000,193.451 118.782,192.079 119.591,190.666 120.425,189.213 121.280,187.721 122.152,186.191 123.039,184.624 123.936,183.022 124.841,181.384 125.750,179.711 126.660,178.005 127.567,176.266 128.468,174.495 129.360,172.693 130.238,170.859 131.099,168.995 131.941,167.102 132.759,165.181 133.549,163.231 134.309,161.254 135.034,159.251 135.721,157.222 136.366,155.169 136.965,153.092 137.514,150.992 138.011,148.870 138.450,146.728 138.828,144.566 139.141,142.387 139.385,140.191 139.557,137.981 139.652,135.758 139.667,133.525 139.598,131.282 139.441,129.034 139.193,126.781 138.850,124.527 138.410,122.275 137.868,120.027 137.221,117.786 136.467,115.555 135.602,113.338 134.621,111.137 133.544,109.011"/><polygon points="73.165,160.116 74.859,160.994 76.602,161.838 78.373,162.643 80.169,163.410 81.988,164.141 83.828,164.836 85.687,165.496 87.563,166.122 89.455,166.715 91.362,167.274 93.282,167.802 95.213,168.297 97.154,168.760 99.104,169.192 101.062,169.594 103.025,169.964 104.993,170.305 106.965,170.615 108.939,170.896 110.915,171.147 112.890,171.370 114.863,171.564 116.834,171.729 118.801,171.867 120.763,171.976 122.719,172.058 124.667,172.113 126.607,172.141 128.537,172.142 130.456,172.117 132.362,172.066 134.256,171.988 136.135,171.886 137.998,171.757 139.844,171.604 141.673,171.426 143.482,171.224 145.271,170.997 147.039,170.746 148.784,170.472 150.505,170.174 152.202,169.852 153.872,169.508 155.515,169.140 157.130,168.751 158.715,168.338 160.269,167.904 161.792,167.447 163.281,166.968 164.736,166.468 166.156,165.947 167.538,165.404 168.882,164.839 170.187,164.254 171.451,163.647 172.673,163.019 173.851,162.371 174.983,161.701 176.069,161.011 177.105,160.299 178.090,159.567 179.023,158.814 179.899,158.040 180.673,157.277 177.327,152.723 176.458,153.167 175.594,153.576 174.690,153.981 173.747,154.382 172.763,154.779 171.740,155.170 170.678,155.555 169.577,155.934 168.438,156.306 167.261,156.670 166.047,157.027 164.798,157.376 163.513,157.716 162.195,158.046 160.842,158.367 159.458,158.678 158.043,158.979 156.597,159.269 155.121,159.547 153.618,159.815 152.087,160.070 150.530,160.313 148.948,160.544 147.341,160.763 145.712,160.968 144.060,161.159 142.387,161.337 140.694,161.501 138.983,161.651 137.253,161.786 135.507,161.907 133.744,162.012 131.967,162.101 130.176,162.175 128.373,162.233 126.557,162.275 124.731,162.300 122.895,162.309 121.051,162.300 119.199,162.274 117.340,162.230 115.476,162.169 113.607,162.089 111.734,161.991 109.858,161.875 107.981,161.739 106.103,161.585 104.225,161.411 102.348,161.217 100.473,161.004 98.601,160.771 96.732,160.518 94.869,160.244 93.010,159.950 91.158,159.635 89.312,159.300 87.474,158.944 85.644,158.567 83.823,158.170 82.010,157.752 80.208,157.314 78.414,156.858 76.630,156.383 74.835,155.884"/><polygon points="67.128,212.864 69.114,213.131 71.174,213.336 73.271,213.487 75.401,213.588 77.563,213.645 79.753,213.660 81.970,213.637 84.212,213.578 86.476,213.485 88.760,213.362 91.063,213.210 93.383,213.032 95.718,212.829 98.065,212.604 100.424,212.359 102.793,212.095 105.169,211.814 107.552,211.518 109.939,211.209 112.329,210.889 114.719,210.559 117.109,210.222 119.497,209.878 121.880,209.530 124.258,209.178 126.628,208.826 128.990,208.474 131.340,208.124 133.678,207.778 136.001,207.437 138.309,207.103 140.599,206.778 142.869,206.462 145.119,206.158 147.346,205.867 149.549,205.590 151.725,205.329 153.874,205.086 155.993,204.861 158.081,204.657 160.136,204.474 162.157,204.314 164.141,204.178 166.088,204.067 167.995,203.982 169.862,203.925 171.686,203.896 173.466,203.896 175.201,203.927 176.890,203.989 178.532,204.082 180.126,204.207 181.671,204.365 183.168,204.557 184.616,204.782 186.017,205.042 187.371,205.337 188.680,205.668 189.946,206.037 191.172,206.446 192.362,206.897 193.520,207.393 194.648,207.939 195.863,208.638 202.137,201.362 201.039,200.067 199.733,198.753 198.335,197.521 196.853,196.371 195.295,195.304 193.666,194.318 191.973,193.413 190.221,192.587 188.415,191.837 186.560,191.161 184.658,190.557 182.714,190.021 180.730,189.551 178.709,189.144 176.653,188.798 174.565,188.510 172.447,188.277 170.300,188.098 168.127,187.969 165.928,187.889 163.706,187.855 161.462,187.865 159.198,187.918 156.915,188.011 154.615,188.142 152.299,188.309 149.968,188.511 147.625,188.745 145.270,189.010 142.905,189.304 140.532,189.626 138.151,189.972 135.765,190.343 133.375,190.735 130.982,191.148 128.588,191.579 126.195,192.028 123.803,192.492 121.414,192.969 119.030,193.459 116.652,193.959 114.281,194.468 111.920,194.985 109.569,195.507 107.230,196.034 104.905,196.563 102.595,197.094 100.301,197.624 98.025,198.153 95.768,198.679 93.531,199.201 91.317,199.717 89.126,200.226 86.959,200.727 84.819,201.218 82.706,201.700 80.621,202.170 78.566,202.629 76.542,203.075 74.549,203.509 72.589,203.930 70.662,204.341 68.767,204.741 66.872,205.136"/></g></svg>