<svg xmlns="http://www.w3.org/2000/svg" width="24" height="24" viewBox="0 0 24.000000 24.000000"><path d="M0,12a12,12 0 1,0 24,0a12,12 0 1,0 -24,0z" fill="#f7c045" fill-opacity="1.0" /><path d="M10.4,14.6h-3.1v-0.5c0-0.5 0.1-1 0.3-1.4 0.2-0.4 0.6-0.9 1.2-1.5l0.5-0.6c0.3-0.3 0.6-0.6 0.7-0.9 0.2-0.3 0.2-0.6 0.2-0.9 0-0.4-0.1-0.8-0.4-1-0.3-0.3-0.7-0.4-1.1-0.4-0.5,0-1,0.1-1.5,0.3-0.5,0.2-1.1,0.5-1.7,0.9v-3c0.7-0.3 1.3-0.5 1.9-0.6 0.6-0.1 1.1-0.2 1.6-0.2 1.4,0 2.4,0.3 3.2,0.9 0.7,0.6 1.1,1.5 1.1,2.7 0,0.6-0.1,1.2-0.3,1.7-0.2,0.5-0.6,1-1.1,1.6l-0.5,0.5c-0.4,0.4-0.6,0.7-0.8,0.9-0.1,0.2-0.2,0.5-0.2,0.8v0.4m-2.9,2h2.7l0.1,2.8h-2.8" fill="#000000" fill-opacity="0.4" /><path d="M17.8,18.5c0,0.7-0.7,1.2-1.8,1.2-1,0-1.8-0.4-1.8-1.2v-1.2c0-0.7 0.8-1.1 1.8-1.1 1.1,0 1.8,0.5 1.8,1.1zM17.8,13.9c0,0.7-0.7,1.1-1.8,1.1-1,0-1.8-0.5-1.8-1.1v-7.9c0-0.7 0.8-1.1 1.8-1.1 1.1,0 1.8,0.4 1.8,1.1z" fill="#000000" fill-opacity="0.4" /><path d="M10.2,14.3h-3.1v-0.5c0-0.5 0.1-1 0.3-1.4 0.2-0.4 0.6-0.9 1.2-1.5l0.5-0.6c0.3-0.3 0.6-0.6 0.7-0.9 0.2-0.3 0.2-0.6 0.2-0.9 0-0.4-0.1-0.8-0.4-1-0.3-0.3-0.7-0.4-1.1-0.4-0.5,0-1,0.1-1.5,0.3-0.5,0.2-1.1,0.5-1.7,0.9v-3c0.7-0.3 1.3-0.5 1.9-0.6 0.6-0.1 1.1-0.2 1.6-0.2 1.4,0 2.4,0.3 3.2,0.9 0.7,0.6 1.1,1.5 1.1,2.7 0,0.6-0.1,1.2-0.3,1.7-0.2,0.5-0.6,1-1.1,1.6l-0.5,0.5c-0.4,0.4-0.6,0.7-0.8,0.9-0.1,0.2-0.2,0.5-0.2,0.8v0.4m-2.9,2h2.7l0.1,2.8h-2.8" fill="#ffffff" fill-opacity="1.0" /><path d="M17.6,18.2c0,0.7-0.7,1.2-1.8,1.2-1,0-1.8-0.4-1.8-1.2v-1.2c0-0.7 0.8-1.1 1.8-1.1 1.1,0 1.8,0.5 1.8,1.1zM17.6,13.5c0,0.7-0.7,1.1-1.8,1.1-1,0-1.8-0.5-1.8-1.1v-7.9c0-0.7 0.8-1.1 1.8-1.1 1.1,0 1.8,0.4 1.8,1.1z" fill="#ffffff" fill-opacity="1.0" /></svg>